<?xml version="1.0" encoding="utf-8"?>
<!-- Generator: Adobe Illustrator 22.1.0, SVG Export Plug-In . SVG Version: 6.00 Build 0)  -->
<svg version="1.1" id="Layer_1" xmlns="http://www.w3.org/2000/svg" xmlns:xlink="http://www.w3.org/1999/xlink" x="0px" y="0px"
	 viewBox="0 0 34 34" style="enable-background:new 0 0 34 34;" xml:space="preserve">
<path d="M25.4,20.2v-1.3h8.5c0-0.4,0.1-0.8,0.1-1.3h-8.5v-1.3H34c0-0.4,0-0.8-0.1-1.3h-8.5v-1.3h8.3C32.2,5.9,25.3,0,17,0
	C7.6,0,0,7.6,0,17s7.6,17,17,17c8.3,0,15.2-5.9,16.7-13.8H25.4z M8.9,20.2H7.6v-4.6l-1.5,1.5l-1.5-1.5v4.6H3.4v-6.4h1.3v0l1.5,1.5
	l1.5-1.5v0h1.3V20.2z M16.2,15.1h-2.1v3.8h2.1v1.3h-5.5v-1.3h2.1v-3.8h-2.1v-1.3h5.5V15.1z M23.6,20.2h-5.4v-6.4h1.3v5.1h4.1V20.2z"
	/>
</svg>
